<?xml version="1.0" standalone="no"?>
<!DOCTYPE svg PUBLIC "-//W3C//DTD SVG 20010904//EN"
 "http://www.w3.org/TR/2001/REC-SVG-20010904/DTD/svg10.dtd">
<svg version="1.0" xmlns="http://www.w3.org/2000/svg"
 width="512.000000pt" height="512.000000pt" viewBox="0 0 512.000000 512.000000"
 preserveAspectRatio="xMidYMid meet">
<metadata>
Created by potrace 1.11, written by Peter Selinger 2001-2013
</metadata>
<g transform="translate(0.000000,512.000000) scale(0.100000,-0.100000)"
fill="#000000" stroke="none">
<path d="M305 5078 c10 -114 15 -177 19 -218 3 -25 7 -76 11 -115 3 -38 8 -88
10 -110 2 -22 7 -71 10 -110 3 -38 8 -95 10 -125 9 -93 14 -152 20 -225 3 -38
8 -88 10 -110 2 -22 7 -71 10 -110 3 -38 8 -86 10 -105 2 -19 6 -71 10 -115 3
-44 8 -93 10 -110 2 -16 6 -66 10 -110 3 -44 8 -98 10 -120 2 -22 7 -76 10
-120 3 -44 8 -98 11 -119 3 -22 7 -62 9 -90 8 -109 17 -212 20 -226 1 -8 6
-60 10 -115 4 -55 8 -106 10 -115 1 -8 6 -53 10 -100 3 -47 8 -101 10 -120 2
-19 6 -69 9 -110 6 -74 13 -148 21 -225 2 -22 7 -76 10 -120 3 -44 8 -96 10
-115 3 -19 7 -66 10 -105 3 -38 8 -90 10 -115 3 -25 7 -74 10 -110 3 -36 7
-85 10 -110 2 -25 7 -77 10 -116 3 -40 7 -87 10 -105 2 -19 6 -70 10 -114 3
-44 8 -98 10 -120 2 -22 6 -71 10 -110 3 -38 8 -88 10 -110 2 -22 7 -74 11
-115 3 -41 7 -76 8 -77 3 -3 656 -187 701 -197 16 -4 90 -25 223 -62 68 -20
132 -37 143 -39 11 -2 34 -9 52 -15 34 -11 176 -50 519 -145 l208 -57 132 37
c73 20 147 41 163 46 17 5 372 104 790 220 417 115 760 211 761 212 1 1 5 38
9 82 3 44 8 94 10 110 2 17 7 66 10 110 6 77 8 102 20 230 3 33 8 87 10 120 3
33 7 76 10 95 2 19 7 78 11 130 3 52 8 102 9 110 2 8 6 53 10 100 3 47 8 99
10 117 2 17 7 69 10 115 3 46 8 94 10 108 2 14 7 68 10 120 4 52 9 103 11 113
2 10 6 55 9 100 3 45 8 100 10 122 2 22 7 72 10 110 3 39 8 88 10 110 3 22 7
69 10 105 3 36 7 88 10 115 3 28 7 75 9 105 3 30 8 87 11 125 3 39 8 88 10
110 2 22 6 67 9 100 7 83 17 192 21 240 2 22 6 72 10 110 3 39 8 88 10 110 2
22 7 72 10 110 3 39 8 89 10 112 2 24 7 78 10 120 3 43 8 92 10 108 2 17 7 66
10 110 4 44 8 96 10 115 2 19 6 69 9 110 4 41 9 93 11 115 2 22 7 72 10 110 4
39 8 90 11 115 2 25 6 74 9 110 3 36 8 84 10 108 l6 42 -2260 0 -2259 0 3 -42z"/>
</g>
</svg>
